DataType=double
version=3
OpenSimVersion=4.5-2023-11-26-efcdfd3eb
endheader
time	EMG01_right_gast_med	EMG02_right_glut_max	EMG03_left_gast_med	EMG04_left_glut_max	EMG05_right_glut_med	EMG06_right_bic_fem	EMG07_right_rect_fem	EMG08_right_vast_lat	EMG09_right_vast_med	EMG10_right_tens_fasc_lat	EMG11_left_glut_med	EMG12_left_bic_fem	EMG13_left_rect_fem	EMG14_left_vast_lat	EMG15_left_vast_med	EMG16_left_tens_fasc_lat
0	2.360953443123067	-3.936447681691743	1.790632907858056	1.907247317663523	-4.170327712966843	0.6301752139196415	0.9662594386281881	-0.5901130460777714	-1.602980560585858	4.078583543612956	1.860225429252507	1.231728500333382	0.676141155369151	0.8055759423992077	-5.017128787228159	-3.339258954391981
0.01	11.43656832225602	-3.474760060263223	2.729987544803449	5.950033548637117	2.649379110951306	1.904672065622715	3.374594590782424	-0.1109627296080827	-0.6691935642099937	6.806115498802585	3.734305793657137	3.036719641949562	1.950278093249965	4.063990966331757	-1.536173840042962	1.247673527617263
0.02	20.21998437126349	-2.930924387262913	3.705790671579453	9.928252966665086	10.00592398218023	3.171164689655551	5.646689920088654	0.376834126528816	0.3118124577702524	9.602511648588074	5.586772505332529	4.790875563289427	3.236659965040845	7.268405202626998	2.019561304746051	5.820863420704589
0.03	28.62376826914181	-2.301784688250191	4.710247646262797	13.82693743398208	17.87383849286055	4.413800478609562	7.774124706375389	0.870456343946176	1.337532640454502	12.45502754969767	7.406248953695724	6.483571233691704	4.523987144805712	10.40478455593684	5.643568514712434	10.37321862057918
0.04	36.56558155885365	-1.584602570684602	5.735083181138793	17.63141156747665	26.22096274212555	5.617181204440441	9.749693538898246	1.367117389522743	2.405003349312788	15.34961437802423	9.181439536968531	8.10466028963574	5.800904195659175	13.45934768504059	9.328622188630305	14.8986440601709
0.05	43.96970871474911	-0.7771209625377657	6.771655660150277	21.32736588099885	35.00843403469639	6.766661401286831	11.5674351285042	1.864103326432076	3.510794524238196	18.27099361295562	10.90125329219606	9.644595389863229	7.056163541167001	16.41865137123363	13.06669623487533	19.39201468796062
0.06	50.76843095837808	0.1223632009893334	7.811081939251333	24.90092904096978	44.1907379263813	7.848624249151704	13.22265197215908	2.358805171258078	4.650999677046661	21.20275722892561	12.55492758069737	11.09454018114648	8.278784955069389	19.26967502147627	16.84888133809351	23.84912507883497
0.07000000000000001	56.90320851633959	1.114918053569331	8.844371793766971	28.33874048435069	53.71582724453717	8.850727845082886	14.711921979121	2.848745041341477	5.821223878958208	24.12749425891781	14.13215028737017	12.44647088036607	9.458207679484854	21.99990439757986	20.66530560657743	28.26661673347418
0.08	62.32563939800379	2.200889116351206	9.86257115648594	31.62802486870246	63.52531689242214	9.762115789882195	16.03310301365306	3.331595817572298	7.016570733822157	27.02694424958495	15.62317911441493	13.69326604851558	10.58443196383526	24.59741469647369	24.50506193500658	32.64188413405805
0.09	66.9981691974624	3.379807052982854	10.85691319333672	34.75666962814208	73.55476389134108	10.57358733212886	17.1853308685136	3.805194244819126	8.231629946194706	29.88217768875827	17.01895667651899	14.82878372934046	11.64814695656561	27.0509529748774	28.3561454543164	36.97296059041448
0.1	70.89453511960042	4.65029369787635	11.8189760775807	37.71330641960217	83.7340429859928	11.27772404766071	18.16901057815951	4.267547529112001	9.46046761737481	32.67380290267835	18.31122024119019	15.84792559051086	12.64084233439757	29.35001961540634	32.20540440351359	41.25838495499776
0.11	73.99993878641563	6.009969718341145	12.74084605949444	40.48739664699924	93.98782803124119	11.86897218299715	18.98580033895744	4.716833625328375	10.69662174059643	35.38219816283416	19.49260506700492	16.74668792131234	13.55490188871444	31.48494809231506	36.03850781750948	45.49705039382735
0.12	76.31095506285209	7.455367671072427	13.61528413869298	43.06932072812651	104.2361881151335	12.34368213838917	19.63858670644944	5.151395560292283	11.93310544019352	37.98776682671742	20.55674028459401	17.52219931084068	14.38367837993175	33.44698192917789	39.83993352027316	49.68803671748203
0.13	77.83519553180255	8.981854491483627	14.43589442773763	45.4504703536595	114.3953049430893	12.70010869725603	20.13144924136513	5.56973033771539	13.16242031574532	40.47121230524044	21.49833607290566	18.17274463039532	15.12155002055232	35.22834769195123	43.59297982835623	53.8304286885833
0.14	78.59075329273942	10.58356758965116	15.19729222913564	47.62334257427295	124.3783146757405	12.93837708085722	20.46961244585389	5.970473249581526	14.37658189497965	42.81382850047324	22.3132605367212	18.69777465368102	15.7639597040327	36.82232300866836	47.27980411559741	57.92312426769608
0.15	78.60546023659754	12.25336870117087	15.8952698725938	49.58163401455877	134.0962734992823	13.06042053926709	20.65938278579685	6.352378730588788	15.56715877609953	44.99780003647045	22.99860433884993	19.09790041551284	16.30743853100583	38.22329857645002	50.88149123449825	61.96463824989761
0.16	77.91598974898214	13.98281944265611	16.52695826983199	51.32033280939936	143.4592417812217	13.06989515109091	20.70806901838973	6.714299152649104	16.72532664456074	47.00650511522947	23.55273098242748	19.37487146761604	16.74961539333551	39.4268328280349	54.37815482665263	65.95290747633614
0.17	76.56683784084382	15.76218213715647	17.09098177940139	52.83580514834823	152.3774766144288	12.97207708884453	20.62388510675692	7.055163107421232	17.84193803296825	48.82481233285995	23.97531077425738	19.53153767882392	17.08921439952001	40.42969778016799	57.74907450607709	69.88510390139577
0.18	74.60921482796357	17.58044891243556	17.58760336056931	54.12587287563936	160.7627169149584	12.77374701692058	20.41583663121759	7.373954748615281	18.90760843792949	50.43936159879313	24.26733683692583	19.57179502791193	17.32604176372508	41.2299150225877	60.97287142705013	73.7574618581866
0.19	72.09987853203589	19.42540136623627	18.01885627255863	55.18987846555514	168.5295393092744	12.4830656170299	20.09359337161958	7.66969567211817	19.91281915160091	51.83881869152165	24.43112191567079	19.50051664940022	17.46096349182659	41.82678182791172	64.02772372238603	77.5651260403008
0.2	69.09993869144516	21.28370226797257	18.38865784817918	56.02873359173014	175.5967571893401	12.10944352787176	19.66735210343353	7.941430643257912	20.84803685605535	53.01409295614079	24.47027506353148	19.32347095388682	17.49587483988616	42.22088847484749	66.89162180466346	81.3020266301066
0.21	65.67366050966898	23.14101985287424	18.70290018451522	56.6449472892658	181.8888297860206	11.66340827823299	19.14769432054689	8.188218293053714	21.70384961415242	53.95850801242254	24.38965753206804	19.0472288978009	17.43366207552371	42.41412850798051	69.54266180440447	84.96078741604418
0.22	61.8872927246864	24.9821843046505	18.96951202317245	57.04262961468054	187.3372432957495	11.15647012387214	18.54544358024249	8.409127721419704	22.47111830779292	54.66791626970578	24.1953173203729	18.67906257099057	17.27815651182	42.40970354053141	71.95937370537247	88.53267173072706
0.23	57.80794235716477	26.79137506755163	19.19848582003958	57.22746695578567	191.8818230237438	10.60098810983047	17.87152667314006	8.603241738964527	23.14114182565389	55.14075020879486	23.89440205892688	18.22683739170366	17.03408018677871	42.21212337717342	74.12107906044126	92.00756964155771
0.24	53.50251477037917	28.55233670443171	19.40186426866578	57.20666563989211	195.4719355408459	10.01003720175367	17.13684212198995	8.769667216229072	23.70583348219554	55.37800714534302	23.49505065071194	17.69890039287072	16.70698214554267	41.82720088116636	76.008271478194	95.37402799363828
0.25	49.03673414307421	30.24862011304065	19.59368145728553	56.98886130973344	198.0675433059431	9.397276962086103	16.3521387896398	8.907552685353988	24.15790532228202	55.3831689608469	23.00626545812126	17.1039672273949	16.30316429498151	41.26203946896105	77.60301141000211	98.61932279350793
0.26	44.47425602177769	31.86384500577169	19.78985523670478	56.58399316721211	199.640079992503	8.77682196630224	15.52790667005847	9.016112972560714	24.49105611487501	55.16206303687723	22.43776826275051	16.45101043900459	15.82959634409187	40.5250098187933	78.8893251584885	101.729571358515
0.27	39.87588033782002	33.38197862415156	20.00802888747397	56.00314481891619	200.1731217783264	8.163113930782828	14.67428123234368	9.094660248647662	24.70015800675927	54.72267441606898	21.79984402716314	15.74915115658975	15.29382028616502	39.62571168737745	79.85359633767985	104.6898798880608
0.28	35.29887022930374	34.78762465821625	20.26736157850668	55.25835653077296	199.6628377011375	7.570795317337839	13.80096200200779	9.14264047822599	24.78143616067222	54.07492138785592	21.10317647195303	15.00755575597099	14.70384591216954	38.57491692481592	80.48493632557143	107.4845208235587
0.29	30.79637927367846	36.06631526715377	20.58826855499527	54.36241639705246	198.1182102436425	7.014583957803866	12.91714542767131	9.15967383500525	24.732635392421	53.23040721278338	20.35867905004361	14.23533839589834	14.0680396418763	37.38449104682464	80.77551921087601	110.0971339352264
0.3	26.41698733769811	37.20479810178564	20.99211378292004	53.3286396345872	195.5610243934015	6.509148020196299	12.03147149540491	9.145597257770753	24.55316787516457	52.20216013862418	19.57732456872896	13.44146985051287	13.39500935529827	36.06729275745385	80.72086712891006	112.5109458680987
0.31	22.2043431717487	38.19130959303614	21.50085988489193	52.17064551589227	192.0256286663581	6.068980455751157	11.151983010457	9.100507007989439	24.24423632796899	51.00437277506399	18.76997670551733	12.634692759953	12.69348796722927	34.63705275382592	80.32007380564596	114.7090045845429
0.32	18.19691010461784	39.01582563665024	22.13668209270341	50.90214037244365	187.5584753494988	5.708271937978055	10.28609601815531	9.024798928917493	23.80892761796064	49.65215038440291	17.94722685960943	11.82344323565261	11.97221836725995	33.10823433463387	79.57595682778393	116.6744268501562
0.33	14.42780974379229	39.67028106263065	22.92155400525317	49.53671330391894	182.2174506226966	5.440781236380252	9.440579617038647	8.919204165847455	23.25227229867034	48.16127569057014	17.11923988792432	11.01577866279271	11.2398421317776	31.49587883512267	78.49513166849198	118.3906579004828
